<svg width="800" height="600" xmlns="http://www.w3.org/2000/svg">
 <!-- Created with Method Draw - http://github.com/duopixel/Method-Draw/ -->
 <defs>
  <linearGradient y2="1" x2="1" y1="0" x1="0" id="svg_25">
   <stop offset="0" stop-opacity="0.98828" stop-color="#fff200"/>
   <stop offset="0.77734" stop-opacity="0.98828" stop-color="#ff9000"/>
  </linearGradient>
 </defs>
 <g>
  <title>Layer 1</title>
  <polyline stroke-linecap="round" id="svg_13" points="326.5,222.453125 327.5,222.453125 " fill-opacity="null" stroke-opacity="null" stroke-width="1.5" stroke="#000" fill="none"/>
  <path d="m-35.5,351.45313c1,0 0.67963,-1.02582 1,-3c0.50654,-3.12143 2,-7 4,-11c2,-4 4.53164,-8.51703 10,-13c5.57665,-4.57175 14.93779,-9.15918 25,-13c10.93515,-4.17404 22.77712,-8.03043 39,-11c16.83748,-3.08206 38,-3 58,-3c22,0 47.03476,-0.38055 71,2c26.04433,2.58707 54,7 81,13c27,6 55.22318,11.2413 87,21c30.2294,9.28348 64.93344,21.16779 95,33c30.9325,12.173 61.66632,24.93051 94,36c28.7276,9.83496 57.93701,18.26889 83,24c22.94495,5.24677 46.95648,9.49768 67,11c19.96899,1.49673 41,2 59,2c17,0 34.07758,-0.51691 48,-3c14.0954,-2.51392 25.38092,-5.94131 35,-10c9.48578,-4.00244 19.3374,-10.38647 27,-15c7.36963,-4.43713 13,-9 17,-13c2,-2 4.70709,-2.70709 4,-2c-0.70709,0.70709 -2.18604,0.69254 -4,2c-1.14728,0.8269 -2.8244,2.0979 -4,4c-0.52576,0.85065 -1,2 -2,3c-1,1 -0.69342,2.4588 -2,3c-0.92389,0.38269 -2,1 -2,2c0,1 -1,1 -1,2c0,1 -0.29291,1.29291 -1,2c-0.70709,0.70709 0,2 0,3c0,1 0,3 0,4c0,1 0,2 0,3c0,2 0,3 0,4c0,1 0,2 0,3c0,1 0,3 0,4c0,1 0,2 0,3c0,1 0,2 0,3c0,2 -0.38269,3.07611 0,4c0.5412,1.30655 1,2 1,3c0,1 0,2 0,3c0,1 0,2 0,3c0,1 0.4588,1.69345 1,3c0.76538,1.84775 0,3 0,4c0,1 0,3 0,4c0,1 0,3 0,4c0,2 0,3 0,5c0,1 0,3 0,4c0,1 0,2 0,3c0,2 0,3 0,4c0,1 0,2 0,3c0,1 0,3 0,4c0,1 0,2 0,3c0,1 0,2 0,3c0,1 0,2 0,3c0,1 0,2 0,3c0,1 0,2 0,3c0,1 0,2 0,3c0,1 -0.29291,2.29291 -1,3c-0.70709,0.70709 -0.29291,1.29291 -1,2c-0.70709,0.70709 -1,1 -1,2c0,1 -0.29291,1.29291 -1,2c-0.70709,0.70709 -0.29291,1.29291 -1,2c-0.70709,0.70709 0,2 0,3c0,1 -1,1 -1,2c0,1 0,2 0,4c0,1 0.38269,2.07611 0,3c-0.5412,1.30658 -1,2 -1,3c0,1 -1,2 -1,3c0,1 -1,2 -1,3c0,1 -1,1 -1,2c0,1 0,2 -1,2c-1,0 -0.61731,2.07611 -1,3c-0.5412,1.30658 -1.77026,2.02673 -2,3c-0.51373,2.17627 -0.77026,3.02673 -1,4c-0.51373,2.17627 -1.54047,3.05353 -2,5c-0.51373,2.17627 -0.67963,4.02582 -1,6c-0.50653,3.12146 -1.48627,4.82373 -2,7c-0.68927,2.91974 -1,7 -1,10c0,2 -0.31073,4.08026 -1,7c-0.51373,2.17627 -1.48627,3.82373 -2,6c-0.68927,2.91974 -0.48627,3.82373 -1,6c-0.68927,2.91974 -1.48627,5.82373 -2,8c-0.45953,1.94647 -1.49347,3.87854 -2,7c-0.32037,1.97418 -0.87769,5.06598 -2,7c-1.80969,3.11847 -3.20679,5.81268 -5,8c-2.28589,2.78833 -3.34619,3.70544 -5,6c-1.30743,1.81396 -2,3 -4,5c-1,1 -2.3869,2.9176 -5,4c-0.92389,0.38269 -3.87854,2.49347 -7,3c-2.96124,0.48053 -6,0 -11,0c-6,0 -13,1 -19,1c-9,0 -17.01379,-0.49768 -26,0c-9.0415,0.50079 -14.93799,1.49829 -21,2c-6.97614,0.57739 -13,0 -19,0c-6,0 -12,0 -18,0c-8,0 -18,-1 -27,-1c-9,0 -20,0 -30,0c-11,0 -23,0 -33,0c-9,0 -18.9585,0.49921 -28,1c-7.98773,0.44238 -15.94672,0.49872 -23,1c-6.98236,0.49622 -16,1 -25,1c-8,0 -18,1 -27,1c-11,0 -20,0 -29,0c-8,0 -18,0 -28,0c-11,0 -20,0 -29,0c-11,0 -21,0 -31,0c-11,0 -23,0 -34,0c-10,0 -23,0 -34,0c-9,0 -21,0 -32,0c-12,0 -23,0 -33,0c-10,0 -21,-1 -30,-1c-10,0 -22,0 -32,0c-11,0 -25,-1 -38,-1c-14,0 -26.0113,0.49847 -37,0c-11.03401,-0.50049 -21,-1 -30,-1c-7,0 -13.93796,-0.49829 -20,-1c-5.97956,-0.49487 -12.04496,-0.26691 -18,-1c-4.09221,-0.50378 -11,-1 -15,-1c-5,0 -9.03874,0.48053 -12,0c-3.12144,-0.50653 -6.03874,-1.51947 -9,-2c-3.12144,-0.50653 -6,-1 -9,-2c-3,-1 -6.15224,-1.23462 -8,-2c-1.30656,-0.5412 -4,-2 -6,-3c-2,-1 -4.18601,-1.69257 -6,-3c-1.14727,-0.8269 -3.07612,-2.61731 -4,-3c-2.61312,-1.0824 -3.1731,-2.85272 -4,-4c-1.30745,-1.81396 -0.94854,-2.29871 -2,-4c-1.17557,-1.9021 -2.13065,-4.12872 -3,-7c-1.04483,-3.45087 -3,-6 -3,-10c0,-5 -0.50731,-10.02435 -1,-15c-0.50245,-5.07422 -1,-12 -1,-19c0,-7 0,-13 0,-20c0,-7 1.49874,-15.94672 2,-23c0.638,-8.97736 1.99399,-17.83551 3,-27c0.87293,-7.95224 1,-15 2,-22c1,-7 1,-13 2,-19c1,-6 1.38908,-11.03748 2,-16c0.50377,-4.09222 1.70439,-9.01459 2,-12c0.50245,-5.07422 0.38908,-9.03748 1,-14c0.50377,-4.09222 1.49346,-8.87857 2,-12c0.64073,-3.94836 0.49346,-6.87857 1,-10c0.48055,-2.96127 0,-7 0,-11c0,-4 -0.48873,-8.02997 0,-12c0.50377,-4.09222 1.49623,-6.90778 2,-11c0.48873,-3.97003 1,-7 1,-10c0,-3 -0.32036,-6.02582 0,-8c0.50654,-3.12143 1.49346,-5.87857 2,-9c0.32036,-1.97418 0.49346,-4.87857 1,-8c0.48055,-2.96127 0,-6 0,-7c0,-2 0,-3 0,-5c0,-1 0,-2 0,-3c0,-2 0,-3 0,-5c0,-1 0,-2 0,-3c0,-1 0,-2 0,-4c0,-1 0,-2 0,-3c0,-1 0.70711,-2.29291 0,-3c-0.70711,-0.70709 -1,-1 -1,-2c0,-1 -1,-1 -1,0c0,1 -1,2 -1,3c0,1 0,2 0,3c0,1 0,2 0,3c0,2 -1,2 -1,3l0,1l0,1" id="svg_20" stroke-width="1.5" stroke="url(#gradbox_stroke)" fill="url(#svg_25)"/>
 </g>
</svg>